<mxfile host="65bd71144e">
    <diagram id="9eewM0FivRC3HTKJyOST" name="Page-1">
        <mxGraphModel dx="1353" dy="564" grid="1" gridSize="10" guides="1" tooltips="1" connect="1" arrows="1" fold="1" page="1" pageScale="1" pageWidth="850" pageHeight="1100" math="0" shadow="0">
            <root>
                <mxCell id="0"/>
                <mxCell id="1" parent="0"/>
                <mxCell id="2" value="ACL-200" style="strokeWidth=2;html=1;shape=mxgraph.flowchart.database;whiteSpace=wrap;" parent="1" vertex="1">
                    <mxGeometry x="20" y="280" width="140" height="120" as="geometry"/>
                </mxCell>
                <mxCell id="3" value="&lt;b&gt;Papers&lt;/b&gt;" style="swimlane;fontStyle=0;childLayout=stackLayout;horizontal=1;startSize=30;horizontalStack=0;resizeParent=1;resizeParentMax=0;resizeLast=0;collapsible=1;marginBottom=0;whiteSpace=wrap;html=1;" parent="1" vertex="1">
                    <mxGeometry x="240" width="320" height="130" as="geometry"/>
                </mxCell>
                <mxCell id="4" value="&lt;b&gt;&lt;u&gt;Title:&lt;/u&gt; &lt;/b&gt;Improved Local Citation Recommendation Based on Context Enhanced with Global Information&lt;br&gt;&amp;nbsp;" style="text;strokeColor=default;fillColor=none;align=left;verticalAlign=middle;spacingLeft=4;spacingRight=4;overflow=hidden;points=[[0,0.5],[1,0.5]];portConstraint=eastwest;rotatable=0;whiteSpace=wrap;html=1;rounded=0;" parent="3" vertex="1">
                    <mxGeometry y="30" width="320" height="30" as="geometry"/>
                </mxCell>
                <mxCell id="5" value="&lt;b&gt;Abstract:&amp;nbsp;&lt;/b&gt;Local citation recommendation aims at finding articles relevant for given citation context ...&lt;br&gt;&lt;b&gt;&amp;nbsp;&lt;/b&gt;" style="text;strokeColor=default;fillColor=none;align=left;verticalAlign=middle;spacingLeft=4;spacingRight=4;overflow=hidden;points=[[0,0.5],[1,0.5]];portConstraint=eastwest;rotatable=0;whiteSpace=wrap;html=1;rounded=0;" parent="3" vertex="1">
                    <mxGeometry y="60" width="320" height="70" as="geometry"/>
                </mxCell>
                <mxCell id="7" value="&lt;b&gt;Context&lt;/b&gt;" style="swimlane;fontStyle=0;childLayout=stackLayout;horizontal=1;startSize=30;horizontalStack=0;resizeParent=1;resizeParentMax=0;resizeLast=0;collapsible=1;marginBottom=0;whiteSpace=wrap;html=1;" parent="1" vertex="1">
                    <mxGeometry x="240" y="160" width="320" height="420" as="geometry"/>
                </mxCell>
                <mxCell id="12" value="&lt;b&gt;&lt;u&gt;context_id&lt;/u&gt;:&amp;nbsp;&lt;/b&gt;&amp;nbsp;P11-2120_P10-2036_0" style="text;strokeColor=none;fillColor=none;align=left;verticalAlign=middle;spacingLeft=4;spacingRight=4;overflow=hidden;points=[[0,0.5],[1,0.5]];portConstraint=eastwest;rotatable=0;whiteSpace=wrap;html=1;" vertex="1" parent="7">
                    <mxGeometry y="30" width="320" height="40" as="geometry"/>
                </mxCell>
                <mxCell id="16" value="&lt;b&gt;&lt;u&gt;citation_context&lt;/u&gt;:&amp;nbsp;&lt;/b&gt;Other approaches include for example clustering-based algorithms, such as the one presented in &lt;b&gt;(ABC., 2010)&lt;/b&gt;, or techniques which rely on building a statistical language model to rank KPs, like the one presented in&amp;nbsp;&lt;b&gt;(XYZ., 2010)&lt;/b&gt;" style="text;strokeColor=default;fillColor=none;align=left;verticalAlign=middle;spacingLeft=4;spacingRight=4;overflow=hidden;points=[[0,0.5],[1,0.5]];portConstraint=eastwest;rotatable=0;whiteSpace=wrap;html=1;" vertex="1" parent="7">
                    <mxGeometry y="70" width="320" height="80" as="geometry"/>
                </mxCell>
                <mxCell id="9" value="&lt;b&gt;&lt;u&gt;Masked_text&lt;/u&gt;:&amp;nbsp;&lt;/b&gt;Other approaches include for example clustering-based algorithms, such as the one presented in &lt;b&gt;TARGETCIT&lt;/b&gt;, or techniques which rely on building a statistical language model to rank KPs, like the one presented in &lt;b&gt;OTHERCIT&lt;/b&gt;" style="text;strokeColor=default;fillColor=none;align=left;verticalAlign=middle;spacingLeft=4;spacingRight=4;overflow=hidden;points=[[0,0.5],[1,0.5]];portConstraint=eastwest;rotatable=0;whiteSpace=wrap;html=1;" parent="7" vertex="1">
                    <mxGeometry y="150" width="320" height="80" as="geometry"/>
                </mxCell>
                <mxCell id="8" value="&lt;b&gt;&lt;u&gt;Cited_num_citations:&lt;/u&gt;&amp;nbsp;&lt;/b&gt;10&amp;nbsp;" style="text;strokeColor=none;fillColor=none;align=left;verticalAlign=middle;spacingLeft=4;spacingRight=4;overflow=hidden;points=[[0,0.5],[1,0.5]];portConstraint=eastwest;rotatable=0;whiteSpace=wrap;html=1;" parent="7" vertex="1">
                    <mxGeometry y="230" width="320" height="30" as="geometry"/>
                </mxCell>
                <mxCell id="13" value="&lt;b&gt;&lt;u&gt;cited_id&lt;/u&gt;: &lt;/b&gt;&amp;nbsp;P11-2020" style="text;strokeColor=none;fillColor=none;align=left;verticalAlign=middle;spacingLeft=4;spacingRight=4;overflow=hidden;points=[[0,0.5],[1,0.5]];portConstraint=eastwest;rotatable=0;whiteSpace=wrap;html=1;" vertex="1" parent="7">
                    <mxGeometry y="260" width="320" height="40" as="geometry"/>
                </mxCell>
                <mxCell id="14" value="&lt;b&gt;&lt;u&gt;ref_id&lt;/u&gt;: &lt;/b&gt;&amp;nbsp;P10-2036" style="text;strokeColor=none;fillColor=none;align=left;verticalAlign=middle;spacingLeft=4;spacingRight=4;overflow=hidden;points=[[0,0.5],[1,0.5]];portConstraint=eastwest;rotatable=0;whiteSpace=wrap;html=1;" vertex="1" parent="7">
                    <mxGeometry y="300" width="320" height="40" as="geometry"/>
                </mxCell>
                <mxCell id="25" value="&lt;b&gt;&lt;u&gt;maker&lt;/u&gt;: &lt;/b&gt;&amp;nbsp;ABC, XYZ" style="text;strokeColor=none;fillColor=none;align=left;verticalAlign=middle;spacingLeft=4;spacingRight=4;overflow=hidden;points=[[0,0.5],[1,0.5]];portConstraint=eastwest;rotatable=0;whiteSpace=wrap;html=1;" vertex="1" parent="7">
                    <mxGeometry y="340" width="320" height="40" as="geometry"/>
                </mxCell>
                <mxCell id="26" value="&lt;b&gt;preprocessed, bm25_diff_score, specter_diff_score, tokens_freq_sum, specter_pos_rank, tc_index&amp;nbsp;&lt;/b&gt;&amp;nbsp;" style="text;strokeColor=none;fillColor=none;align=left;verticalAlign=middle;spacingLeft=4;spacingRight=4;overflow=hidden;points=[[0,0.5],[1,0.5]];portConstraint=eastwest;rotatable=0;whiteSpace=wrap;html=1;" vertex="1" parent="7">
                    <mxGeometry y="380" width="320" height="40" as="geometry"/>
                </mxCell>
                <mxCell id="17" value="&lt;b&gt;TRAIN/ TEST&lt;/b&gt;" style="swimlane;fontStyle=0;childLayout=stackLayout;horizontal=1;startSize=30;horizontalStack=0;resizeParent=1;resizeParentMax=0;resizeLast=0;collapsible=1;marginBottom=0;whiteSpace=wrap;html=1;" vertex="1" parent="1">
                    <mxGeometry x="240" y="620" width="320" height="90" as="geometry"/>
                </mxCell>
                <mxCell id="18" value="&lt;b&gt;&lt;u&gt;context_id:&lt;/u&gt;&amp;nbsp;&amp;nbsp;&lt;/b&gt;P11-2120_P10-2036_0" style="text;strokeColor=default;fillColor=none;align=left;verticalAlign=middle;spacingLeft=4;spacingRight=4;overflow=hidden;points=[[0,0.5],[1,0.5]];portConstraint=eastwest;rotatable=0;whiteSpace=wrap;html=1;rounded=0;" vertex="1" parent="17">
                    <mxGeometry y="30" width="320" height="30" as="geometry"/>
                </mxCell>
                <mxCell id="19" value="&lt;b&gt;&lt;u&gt;paper_id&lt;/u&gt;:&amp;nbsp;&lt;/b&gt;P10-2036&lt;b&gt;&lt;br&gt;&lt;/b&gt;" style="text;strokeColor=default;fillColor=none;align=left;verticalAlign=middle;spacingLeft=4;spacingRight=4;overflow=hidden;points=[[0,0.5],[1,0.5]];portConstraint=eastwest;rotatable=0;whiteSpace=wrap;html=1;rounded=0;" vertex="1" parent="17">
                    <mxGeometry y="60" width="320" height="30" as="geometry"/>
                </mxCell>
                <mxCell id="20" value="&lt;b&gt;VAL&lt;/b&gt;" style="swimlane;fontStyle=0;childLayout=stackLayout;horizontal=1;startSize=30;horizontalStack=0;resizeParent=1;resizeParentMax=0;resizeLast=0;collapsible=1;marginBottom=0;whiteSpace=wrap;html=1;" vertex="1" parent="1">
                    <mxGeometry x="240" y="730" width="320" height="120" as="geometry"/>
                </mxCell>
                <mxCell id="21" value="&lt;b&gt;&lt;u&gt;context_id:&lt;/u&gt;&amp;nbsp;&amp;nbsp;&lt;/b&gt;P11-2120_P10-2036_0" style="text;strokeColor=default;fillColor=none;align=left;verticalAlign=middle;spacingLeft=4;spacingRight=4;overflow=hidden;points=[[0,0.5],[1,0.5]];portConstraint=eastwest;rotatable=0;whiteSpace=wrap;html=1;rounded=0;" vertex="1" parent="20">
                    <mxGeometry y="30" width="320" height="30" as="geometry"/>
                </mxCell>
                <mxCell id="22" value="&lt;b&gt;&lt;u&gt;pos_ref&lt;/u&gt;:&amp;nbsp;&lt;/b&gt;P10-2036&lt;b&gt;&lt;br&gt;&lt;/b&gt;" style="text;strokeColor=default;fillColor=none;align=left;verticalAlign=middle;spacingLeft=4;spacingRight=4;overflow=hidden;points=[[0,0.5],[1,0.5]];portConstraint=eastwest;rotatable=0;whiteSpace=wrap;html=1;rounded=0;" vertex="1" parent="20">
                    <mxGeometry y="60" width="320" height="30" as="geometry"/>
                </mxCell>
                <mxCell id="24" value="&lt;b&gt;&lt;u&gt;neg_ref&lt;/u&gt;:&amp;nbsp;&lt;/b&gt;W14-2710&lt;b&gt;&lt;br&gt;&lt;/b&gt;" style="text;strokeColor=default;fillColor=none;align=left;verticalAlign=middle;spacingLeft=4;spacingRight=4;overflow=hidden;points=[[0,0.5],[1,0.5]];portConstraint=eastwest;rotatable=0;whiteSpace=wrap;html=1;rounded=0;" vertex="1" parent="20">
                    <mxGeometry y="90" width="320" height="30" as="geometry"/>
                </mxCell>
            </root>
        </mxGraphModel>
    </diagram>
</mxfile>